# Blender v2.78 (sub 0) OBJ File: 'stick_insect.blend'
# www.blender.org
o visual_head_head
v -0.086020 -0.053840 0.015769
v -0.117061 -0.015769 0.015769
v -0.086020 -0.050942 0.030338
v -0.086020 -0.042689 0.042689
v -0.097899 -0.050942 0.015769
v -0.098196 -0.047444 0.030703
v -0.097579 -0.040753 0.040753
v -0.103941 -0.037749 0.037749
v -0.098196 -0.030703 0.047444
v -0.107969 -0.015769 0.042689
v -0.086020 -0.030338 0.050942
v -0.106391 -0.029946 0.040753
v -0.114698 -0.030338 0.015769
v -0.107969 -0.042689 0.015769
v -0.114698 -0.015769 0.030338
v -0.111846 -0.030703 0.030703
v -0.106391 -0.040753 0.029946
v -0.086020 0.053840 0.015769
v -0.117061 0.015769 0.015769
v -0.086020 0.030338 0.050942
v -0.086020 0.042689 0.042689
v -0.098196 0.030703 0.047444
v -0.097579 0.040753 0.040753
v -0.103941 0.037749 0.037749
v -0.097899 0.050942 0.015769
v -0.107969 0.042689 0.015769
v -0.086020 0.050942 0.030338
v -0.098196 0.047444 0.030703
v -0.106391 0.040753 0.029946
v -0.114698 0.015769 0.030338
v -0.107969 0.015769 0.042689
v -0.114698 0.030338 0.015769
v -0.111846 0.030703 0.030703
v -0.106391 0.029946 0.040753
v -0.086020 -0.053840 -0.015769
v -0.117061 -0.015769 -0.015769
v -0.086020 -0.015769 -0.053840
v -0.097899 -0.050942 -0.015769
v -0.107969 -0.042689 -0.015769
v -0.086020 -0.050942 -0.030338
v -0.098196 -0.047444 -0.030703
v -0.106391 -0.040753 -0.029946
v -0.103941 -0.037749 -0.037749
v -0.114698 -0.015769 -0.030338
v -0.107969 -0.015769 -0.042689
v -0.114698 -0.030338 -0.015769
v -0.111846 -0.030703 -0.030703
v -0.106391 -0.029946 -0.040753
v -0.086020 -0.030338 -0.050942
v -0.086020 -0.042689 -0.042689
v -0.097899 -0.015769 -0.050942
v -0.098196 -0.030703 -0.047444
v -0.097579 -0.040753 -0.040753
v -0.086020 0.053840 -0.015769
v -0.086020 0.015769 -0.053840
v -0.117061 0.015769 -0.015769
v -0.086020 0.050942 -0.030338
v -0.086020 0.042689 -0.042689
v -0.097899 0.050942 -0.015769
v -0.098196 0.047444 -0.030703
v -0.097579 0.040753 -0.040753
v -0.103941 0.037749 -0.037749
v -0.097899 0.015769 -0.050942
v -0.107969 0.015769 -0.042689
v -0.086020 0.030338 -0.050942
v -0.098196 0.030703 -0.047444
v -0.106391 0.029946 -0.040753
v -0.114698 0.030338 -0.015769
v -0.107969 0.042689 -0.015769
v -0.114698 0.015769 -0.030338
v -0.111846 0.030703 -0.030703
v -0.106391 0.040753 -0.029946
v 0.086020 -0.053840 0.015769
v 0.117061 -0.015769 0.015769
v 0.097899 -0.050942 0.015769
v 0.107969 -0.042689 0.015769
v 0.086020 -0.050942 0.030338
v 0.098196 -0.047444 0.030703
v 0.106391 -0.040753 0.029946
v 0.103941 -0.037749 0.037749
v 0.114698 -0.015769 0.030338
v 0.107969 -0.015769 0.042689
v 0.114698 -0.030338 0.015769
v 0.111846 -0.030703 0.030703
v 0.106391 -0.029946 0.040753
v 0.086020 -0.030338 0.050942
v 0.086020 -0.042689 0.042689
v 0.098196 -0.030703 0.047444
v 0.097579 -0.040753 0.040753
v 0.086020 0.053840 0.015769
v 0.117061 0.015769 0.015769
v 0.086020 0.050942 0.030338
v 0.086020 0.042689 0.042689
v 0.097899 0.050942 0.015769
v 0.098196 0.047444 0.030703
v 0.097579 0.040753 0.040753
v 0.103941 0.037749 0.037749
v 0.098196 0.030703 0.047444
v 0.107969 0.015769 0.042689
v 0.086020 0.030338 0.050942
v 0.106391 0.029946 0.040753
v 0.114698 0.030338 0.015769
v 0.107969 0.042689 0.015769
v 0.114698 0.015769 0.030338
v 0.111846 0.030703 0.030703
v 0.106391 0.040753 0.029946
v 0.086020 -0.053840 -0.015769
v 0.086020 -0.015769 -0.053840
v 0.117061 -0.015769 -0.015769
v 0.086020 -0.050942 -0.030338
v 0.086020 -0.042689 -0.042689
v 0.097899 -0.050942 -0.015769
v 0.098196 -0.047444 -0.030703
v 0.097579 -0.040753 -0.040753
v 0.103941 -0.037749 -0.037749
v 0.097899 -0.015769 -0.050942
v 0.107969 -0.015769 -0.042689
v 0.086020 -0.030338 -0.050942
v 0.098196 -0.030703 -0.047444
v 0.106391 -0.029946 -0.040753
v 0.114698 -0.030338 -0.015769
v 0.107969 -0.042689 -0.015769
v 0.114698 -0.015769 -0.030338
v 0.111846 -0.030703 -0.030703
v 0.106391 -0.040753 -0.029946
v 0.086020 0.053840 -0.015769
v 0.117061 0.015769 -0.015769
v 0.086020 0.015769 -0.053840
v 0.097899 0.050942 -0.015769
v 0.107969 0.042689 -0.015769
v 0.086020 0.050942 -0.030338
v 0.098196 0.047444 -0.030703
v 0.106391 0.040753 -0.029946
v 0.103941 0.037749 -0.037749
v 0.114698 0.015769 -0.030338
v 0.107969 0.015769 -0.042689
v 0.114698 0.030338 -0.015769
v 0.111846 0.030703 -0.030703
v 0.106391 0.029946 -0.040753
v 0.086020 0.030338 -0.050942
v 0.086020 0.042689 -0.042689
v 0.097899 0.015769 -0.050942
v 0.098196 0.030703 -0.047444
v 0.097579 0.040753 -0.040753
vn 0.9931 -0.0826 -0.0826
vn 0.9931 0.0826 -0.0826
vn 0.9931 0.0826 0.0826
vn 0.9931 -0.0826 0.0826
vn 0.1220 0.9875 -0.0999
vn -0.1220 0.9875 -0.0999
vn -0.1220 0.9875 0.0999
vn 0.1220 0.9875 0.0999
vn -0.9931 -0.0826 0.0826
vn -0.9931 0.0826 0.0826
vn -0.9931 0.0826 -0.0826
vn -0.9931 -0.0826 -0.0826
vn -0.1220 -0.0999 -0.9875
vn -0.1220 0.0999 -0.9875
vn 0.1220 0.0999 -0.9875
vn 0.1220 -0.0999 -0.9875
vn -0.1220 -0.9875 0.0999
vn -0.1192 -0.9185 0.3771
vn -0.4284 -0.8297 0.3579
vn -0.4423 -0.8918 0.0950
vn -0.1117 -0.7027 0.7027
vn -0.3950 -0.6496 0.6496
vn -0.7328 -0.6083 0.3048
vn -0.7665 -0.6369 0.0826
vn -0.6547 -0.5344 0.5344
vn -0.4136 -0.2930 0.8620
vn -0.7042 -0.0579 0.7077
vn -0.7336 -0.3058 0.6069
vn -0.1287 -0.2803 0.9512
vn -0.9430 -0.3224 0.0825
vn -0.8932 -0.3180 0.3180
vn -0.9430 -0.0825 0.3224
vn 0.4136 0.2930 0.8620
vn 0.1287 -0.2803 0.9512
vn 0.4136 -0.2930 0.8620
vn -0.1287 0.2803 0.9512
vn -0.1117 0.7027 0.7027
vn -0.3950 0.6496 0.6496
vn -0.4136 0.2930 0.8620
vn -0.7336 0.3058 0.6069
vn -0.7042 0.0579 0.7077
vn -0.6547 0.5344 0.5344
vn -0.4423 0.8918 0.0950
vn -0.4284 0.8297 0.3579
vn -0.1192 0.9185 0.3771
vn -0.7665 0.6369 0.0826
vn -0.7328 0.6083 0.3048
vn -0.9430 0.0825 0.3224
vn -0.8932 0.3180 0.3180
vn -0.9430 0.3224 0.0825
vn -0.1220 -0.9875 -0.0999
vn -0.4423 -0.8918 -0.0950
vn -0.4284 -0.8297 -0.3579
vn -0.1192 -0.9185 -0.3771
vn -0.7665 -0.6369 -0.0826
vn -0.7328 -0.6083 -0.3048
vn -0.3950 -0.6496 -0.6496
vn -0.1117 -0.7027 -0.7027
vn -0.6547 -0.5344 -0.5344
vn -0.9430 -0.0825 -0.3224
vn -0.8932 -0.3180 -0.3180
vn -0.9430 -0.3224 -0.0825
vn -0.7665 -0.0826 -0.6369
vn -0.7328 -0.3048 -0.6083
vn -0.1192 -0.3771 -0.9185
vn -0.4284 -0.3579 -0.8297
vn -0.4423 -0.0950 -0.8918
vn -0.1192 0.9185 -0.3771
vn -0.4284 0.8297 -0.3579
vn -0.4423 0.8918 -0.0950
vn -0.1117 0.7027 -0.7027
vn -0.3950 0.6496 -0.6496
vn -0.7328 0.6083 -0.3048
vn -0.7665 0.6369 -0.0826
vn -0.6547 0.5344 -0.5344
vn -0.4423 0.0950 -0.8918
vn -0.4284 0.3579 -0.8297
vn -0.1192 0.3771 -0.9185
vn -0.7665 0.0826 -0.6369
vn -0.7328 0.3048 -0.6083
vn -0.9430 0.3224 -0.0825
vn -0.8932 0.3180 -0.3180
vn -0.9430 0.0825 -0.3224
vn 0.1220 -0.9875 0.0999
vn 0.4423 -0.8918 0.0950
vn 0.4284 -0.8297 0.3579
vn 0.1192 -0.9185 0.3771
vn 0.7665 -0.6369 0.0826
vn 0.7328 -0.6083 0.3048
vn 0.3950 -0.6496 0.6496
vn 0.1117 -0.7027 0.7027
vn 0.6547 -0.5344 0.5344
vn 0.9430 -0.0825 0.3224
vn 0.8932 -0.3180 0.3180
vn 0.9430 -0.3224 0.0825
vn 0.7042 -0.0579 0.7077
vn 0.7336 -0.3058 0.6069
vn 0.1192 0.9185 0.3771
vn 0.4284 0.8297 0.3579
vn 0.4423 0.8918 0.0950
vn 0.1117 0.7027 0.7027
vn 0.3950 0.6496 0.6496
vn 0.7328 0.6083 0.3048
vn 0.7665 0.6369 0.0826
vn 0.6547 0.5344 0.5344
vn 0.1287 0.2803 0.9512
vn 0.7042 0.0579 0.7077
vn 0.7336 0.3058 0.6069
vn 0.9430 0.3224 0.0825
vn 0.8932 0.3180 0.3180
vn 0.9430 0.0825 0.3224
vn 0.1220 -0.9875 -0.0999
vn 0.1192 -0.9185 -0.3771
vn 0.4284 -0.8297 -0.3579
vn 0.4423 -0.8918 -0.0950
vn 0.1117 -0.7027 -0.7027
vn 0.3950 -0.6496 -0.6496
vn 0.7328 -0.6083 -0.3048
vn 0.7665 -0.6369 -0.0826
vn 0.6547 -0.5344 -0.5344
vn 0.4423 -0.0950 -0.8918
vn 0.4284 -0.3579 -0.8297
vn 0.1192 -0.3771 -0.9185
vn 0.7665 -0.0826 -0.6369
vn 0.7328 -0.3048 -0.6083
vn 0.9430 -0.3224 -0.0825
vn 0.8932 -0.3180 -0.3180
vn 0.9430 -0.0825 -0.3224
vn 0.4423 0.8918 -0.0950
vn 0.4284 0.8297 -0.3579
vn 0.1192 0.9185 -0.3771
vn 0.7665 0.6369 -0.0826
vn 0.7328 0.6083 -0.3048
vn 0.3950 0.6496 -0.6496
vn 0.1117 0.7027 -0.7027
vn 0.6547 0.5344 -0.5344
vn 0.9430 0.0825 -0.3224
vn 0.8932 0.3180 -0.3180
vn 0.9430 0.3224 -0.0825
vn 0.7665 0.0826 -0.6369
vn 0.7328 0.3048 -0.6083
vn 0.1192 0.3771 -0.9185
vn 0.4284 0.3579 -0.8297
vn 0.4423 0.0950 -0.8918
s 1
f 109//1 127//2 91//3 74//4
f 126//5 54//6 18//7 90//8
f 2//9 19//10 56//11 36//12
f 37//13 55//14 128//15 108//16
f 1//17 3//18 6//19 5//20
f 3//18 4//21 7//22 6//19
f 5//20 6//19 17//23 14//24
f 6//19 7//22 8//25 17//23
f 9//26 10//27 12//28
f 11//29 9//26 7//22 4//21
f 9//26 12//28 8//25 7//22
f 2//9 13//30 16//31 15//32
f 13//30 14//24 17//23 16//31
f 15//32 16//31 12//28 10//27
f 16//31 17//23 8//25 12//28
f 98//33 86//34 88//35
f 20//36 21//37 23//38 22//39
f 22//39 34//40 31//41
f 22//39 23//38 24//42 34//40
f 18//7 25//43 28//44 27//45
f 25//43 26//46 29//47 28//44
f 27//45 28//44 23//38 21//37
f 28//44 29//47 24//42 23//38
f 19//10 30//48 33//49 32//50
f 30//48 31//41 34//40 33//49
f 32//50 33//49 29//47 26//46
f 33//49 34//40 24//42 29//47
f 35//51 38//52 41//53 40//54
f 38//52 39//55 42//56 41//53
f 40//54 41//53 53//57 50//58
f 41//53 42//56 43//59 53//57
f 36//12 44//60 47//61 46//62
f 44//60 45//63 48//64 47//61
f 46//62 47//61 42//56 39//55
f 47//61 48//64 43//59 42//56
f 37//13 49//65 52//66 51//67
f 49//65 50//58 53//57 52//66
f 51//67 52//66 48//64 45//63
f 52//66 53//57 43//59 48//64
f 54//6 57//68 60//69 59//70
f 57//68 58//71 61//72 60//69
f 59//70 60//69 72//73 69//74
f 60//69 61//72 62//75 72//73
f 55//14 63//76 66//77 65//78
f 63//76 64//79 67//80 66//77
f 65//78 66//77 61//72 58//71
f 66//77 67//80 62//75 61//72
f 56//11 68//81 71//82 70//83
f 68//81 69//74 72//73 71//82
f 70//83 71//82 67//80 64//79
f 71//82 72//73 62//75 67//80
f 73//84 75//85 78//86 77//87
f 75//85 76//88 79//89 78//86
f 77//87 78//86 89//90 87//91
f 78//86 79//89 80//92 89//90
f 74//4 81//93 84//94 83//95
f 81//93 82//96 85//97 84//94
f 83//95 84//94 79//89 76//88
f 84//94 85//97 80//92 79//89
f 20//36 22//39 11//29
f 86//34 87//91 89//90 88//35
f 88//35 85//97 82//96
f 88//35 89//90 80//92 85//97
f 90//8 92//98 95//99 94//100
f 92//98 93//101 96//102 95//99
f 94//100 95//99 106//103 103//104
f 95//99 96//102 97//105 106//103
f 100//106 20//36 11//29 86//34
f 98//33 99//107 101//108
f 100//106 98//33 96//102 93//101
f 98//33 101//108 97//105 96//102
f 91//3 102//109 105//110 104//111
f 102//109 103//104 106//103 105//110
f 104//111 105//110 101//108 99//107
f 105//110 106//103 97//105 101//108
f 107//112 110//113 113//114 112//115
f 110//113 111//116 114//117 113//114
f 112//115 113//114 125//118 122//119
f 113//114 114//117 115//120 125//118
f 108//16 116//121 119//122 118//123
f 116//121 117//124 120//125 119//122
f 118//123 119//122 114//117 111//116
f 119//122 120//125 115//120 114//117
f 109//1 121//126 124//127 123//128
f 121//126 122//119 125//118 124//127
f 123//128 124//127 120//125 117//124
f 124//127 125//118 115//120 120//125
f 126//5 129//129 132//130 131//131
f 129//129 130//132 133//133 132//130
f 131//131 132//130 144//134 141//135
f 132//130 133//133 134//136 144//134
f 127//2 135//137 138//138 137//139
f 135//137 136//140 139//141 138//138
f 137//139 138//138 133//133 130//132
f 138//138 139//141 134//136 133//133
f 128//15 140//142 143//143 142//144
f 140//142 141//135 144//134 143//143
f 142//144 143//143 139//141 136//140
f 143//143 144//134 134//136 139//141
f 35//51 1//17 5//20 38//52
f 38//52 5//20 14//24 39//55
f 39//55 14//24 13//30 46//62
f 46//62 13//30 2//9 36//12
f 9//26 22//39 31//41 10//27
f 10//27 31//41 30//48 15//32
f 15//32 30//48 19//10 2//9
f 18//7 54//6 59//70 25//43
f 25//43 59//70 69//74 26//46
f 26//46 69//74 68//81 32//50
f 32//50 68//81 56//11 19//10
f 55//14 37//13 51//67 63//76
f 63//76 51//67 45//63 64//79
f 64//79 45//63 44//60 70//83
f 70//83 44//60 36//12 56//11
f 107//112 35//51 40//54 110//113
f 110//113 40//54 50//58 111//116
f 111//116 50//58 49//65 118//123
f 118//123 49//65 37//13 108//16
f 54//6 126//5 131//131 57//68
f 57//68 131//131 141//135 58//71
f 58//71 141//135 140//142 65//78
f 65//78 140//142 128//15 55//14
f 127//2 109//1 123//128 135//137
f 135//137 123//128 117//124 136//140
f 136//140 117//124 116//121 142//144
f 142//144 116//121 108//16 128//15
f 73//84 107//112 112//115 75//85
f 75//85 112//115 122//119 76//88
f 76//88 122//119 121//126 83//95
f 83//95 121//126 109//1 74//4
f 126//5 90//8 94//100 129//129
f 129//129 94//100 103//104 130//132
f 130//132 103//104 102//109 137//139
f 137//139 102//109 91//3 127//2
f 9//26 11//29 22//39
f 98//33 88//35 82//96 99//107
f 99//107 82//96 81//93 104//111
f 104//111 81//93 74//4 91//3
f 1//17 73//84 77//87 3//18
f 3//18 77//87 87//91 4//21
f 4//21 87//91 86//34 11//29
f 90//8 18//7 27//45 92//98
f 92//98 27//45 21//37 93//101
f 93//101 21//37 20//36 100//106
f 98//33 100//106 86//34
f 35//51 107//112 73//84 1//17
