# Blender v2.78 (sub 0) OBJ File: 'stick_insect.blend'
# www.blender.org
o visual_body_torso
v -0.308787 -0.030000 0.008787
v -0.308787 -0.008787 0.030000
v -0.330000 -0.008787 0.008787
v -0.308787 -0.028982 0.017285
v -0.308787 -0.024678 0.024679
v -0.317281 -0.028983 0.008787
v -0.317683 -0.027620 0.017683
v -0.317235 -0.023927 0.023928
v -0.322208 -0.022208 0.022208
v -0.317285 -0.008787 0.028982
v -0.324679 -0.008787 0.024678
v -0.308787 -0.017281 0.028983
v -0.317683 -0.017683 0.027620
v -0.323928 -0.017235 0.023927
v -0.328982 -0.017285 0.008787
v -0.324678 -0.024679 0.008787
v -0.328983 -0.008787 0.017281
v -0.327620 -0.017683 0.017683
v -0.323927 -0.023928 0.017235
v -0.308787 0.008787 0.030000
v -0.308787 0.030000 0.008787
v -0.330000 0.008787 0.008787
v -0.308787 0.017285 0.028982
v -0.308787 0.024679 0.024678
v -0.317281 0.008787 0.028983
v -0.317683 0.017683 0.027620
v -0.317235 0.023928 0.023927
v -0.322208 0.022208 0.022208
v -0.317285 0.028982 0.008787
v -0.324679 0.024678 0.008787
v -0.308787 0.028983 0.017281
v -0.317683 0.027620 0.017683
v -0.323928 0.023927 0.017235
v -0.328982 0.008787 0.017285
v -0.324678 0.008787 0.024679
v -0.328983 0.017281 0.008787
v -0.327620 0.017683 0.017683
v -0.323927 0.017235 0.023928
v -0.308787 -0.030000 -0.008787
v -0.330000 -0.008787 -0.008787
v -0.308787 -0.008787 -0.030000
v -0.317285 -0.028982 -0.008787
v -0.324679 -0.024678 -0.008787
v -0.308787 -0.028983 -0.017281
v -0.317683 -0.027620 -0.017683
v -0.323928 -0.023927 -0.017235
v -0.322208 -0.022208 -0.022208
v -0.328982 -0.008787 -0.017285
v -0.324678 -0.008787 -0.024679
v -0.328983 -0.017281 -0.008787
v -0.327620 -0.017683 -0.017683
v -0.323927 -0.017235 -0.023928
v -0.308787 -0.017285 -0.028982
v -0.308787 -0.024679 -0.024678
v -0.317281 -0.008787 -0.028983
v -0.317683 -0.017683 -0.027620
v -0.317235 -0.023928 -0.023927
v -0.308787 0.030000 -0.008787
v -0.308787 0.008787 -0.030000
v -0.330000 0.008787 -0.008787
v -0.308787 0.028982 -0.017285
v -0.308787 0.024678 -0.024679
v -0.317281 0.028983 -0.008787
v -0.317683 0.027620 -0.017683
v -0.317235 0.023927 -0.023928
v -0.322208 0.022208 -0.022208
v -0.317285 0.008787 -0.028982
v -0.324679 0.008787 -0.024678
v -0.308787 0.017281 -0.028983
v -0.317683 0.017683 -0.027620
v -0.323928 0.017235 -0.023927
v -0.328982 0.017285 -0.008787
v -0.324678 0.024679 -0.008787
v -0.328983 0.008787 -0.017281
v -0.327620 0.017683 -0.017683
v -0.323927 0.023928 -0.017235
v 0.308787 -0.030000 0.008787
v 0.330000 -0.008787 0.008787
v 0.308787 -0.008787 0.030000
v 0.317285 -0.028982 0.008787
v 0.324679 -0.024678 0.008787
v 0.308787 -0.028983 0.017281
v 0.317683 -0.027620 0.017683
v 0.323928 -0.023927 0.017235
v 0.322208 -0.022208 0.022208
v 0.328982 -0.008787 0.017285
v 0.324678 -0.008787 0.024679
v 0.328983 -0.017281 0.008787
v 0.327620 -0.017683 0.017683
v 0.323927 -0.017235 0.023928
v 0.308787 -0.017285 0.028982
v 0.308787 -0.024679 0.024678
v 0.317281 -0.008787 0.028983
v 0.317683 -0.017683 0.027620
v 0.317235 -0.023928 0.023927
v 0.308787 0.030000 0.008787
v 0.308787 0.008787 0.030000
v 0.330000 0.008787 0.008787
v 0.308787 0.028982 0.017285
v 0.308787 0.024678 0.024679
v 0.317281 0.028983 0.008787
v 0.317683 0.027620 0.017683
v 0.317235 0.023927 0.023928
v 0.322208 0.022208 0.022208
v 0.317285 0.008787 0.028982
v 0.324679 0.008787 0.024678
v 0.308787 0.017281 0.028983
v 0.317683 0.017683 0.027620
v 0.323928 0.017235 0.023927
v 0.328982 0.017285 0.008787
v 0.324678 0.024679 0.008787
v 0.328983 0.008787 0.017281
v 0.327620 0.017683 0.017683
v 0.323927 0.023928 0.017235
v 0.308787 -0.030000 -0.008787
v 0.308787 -0.008787 -0.030000
v 0.330000 -0.008787 -0.008787
v 0.308787 -0.028982 -0.017285
v 0.308787 -0.024678 -0.024679
v 0.317281 -0.028983 -0.008787
v 0.317683 -0.027620 -0.017683
v 0.317235 -0.023927 -0.023928
v 0.322208 -0.022208 -0.022208
v 0.317285 -0.008787 -0.028982
v 0.324679 -0.008787 -0.024678
v 0.308787 -0.017281 -0.028983
v 0.317683 -0.017683 -0.027620
v 0.323928 -0.017235 -0.023927
v 0.328982 -0.017285 -0.008787
v 0.324678 -0.024679 -0.008787
v 0.328983 -0.008787 -0.017281
v 0.327620 -0.017683 -0.017683
v 0.323927 -0.023928 -0.017235
v 0.308787 0.030000 -0.008787
v 0.330000 0.008787 -0.008787
v 0.308787 0.008787 -0.030000
v 0.317285 0.028982 -0.008787
v 0.324679 0.024678 -0.008787
v 0.308787 0.028983 -0.017281
v 0.317683 0.027620 -0.017683
v 0.323928 0.023927 -0.017235
v 0.322208 0.022208 -0.022208
v 0.328982 0.008787 -0.017285
v 0.324678 0.008787 -0.024679
v 0.328983 0.017281 -0.008787
v 0.327620 0.017683 -0.017683
v 0.323927 0.017235 -0.023928
v 0.308787 0.017285 -0.028982
v 0.308787 0.024679 -0.024678
v 0.317281 0.008787 -0.028983
v 0.317683 0.017683 -0.027620
v 0.317235 0.023928 -0.023927
vn 0.0627 -0.0627 0.9961
vn -0.0627 0.0627 0.9961
vn -0.0627 -0.0627 0.9961
vn 0.9961 -0.0627 -0.0627
vn 0.9961 0.0627 0.0627
vn 0.9961 -0.0627 0.0627
vn 0.0627 0.9961 -0.0627
vn -0.0627 0.9961 0.0627
vn 0.0627 0.9961 0.0627
vn -0.9961 -0.0627 0.0627
vn -0.9961 0.0627 -0.0627
vn -0.9961 -0.0627 -0.0627
vn -0.0627 -0.0627 -0.9961
vn 0.0627 0.0627 -0.9961
vn 0.0627 -0.0627 -0.9961
vn -0.0627 -0.9961 0.0627
vn -0.3130 -0.8967 0.3130
vn -0.3128 -0.9475 0.0664
vn -0.0664 -0.9474 0.3129
vn -0.2695 -0.6809 0.6809
vn -0.6809 -0.6809 0.2695
vn -0.7057 -0.7058 0.0619
vn -0.5773 -0.5773 0.5773
vn -0.3130 -0.3130 0.8967
vn -0.0664 -0.3128 0.9475
vn -0.3129 -0.0664 0.9474
vn -0.6809 -0.2695 0.6809
vn -0.0619 -0.7057 0.7058
vn -0.8967 -0.3130 0.3130
vn -0.9475 -0.0664 0.3128
vn -0.9474 -0.3129 0.0664
vn -0.7058 -0.0619 0.7057
vn -0.3130 0.3130 0.8967
vn -0.3128 0.0664 0.9475
vn -0.0664 0.3129 0.9474
vn -0.2695 0.6809 0.6809
vn -0.6809 0.2695 0.6809
vn -0.7057 0.0619 0.7058
vn -0.5773 0.5773 0.5773
vn -0.3130 0.8967 0.3130
vn -0.0664 0.9475 0.3128
vn -0.3129 0.9474 0.0664
vn -0.6809 0.6809 0.2695
vn -0.0619 0.7058 0.7057
vn -0.9961 0.0627 0.0627
vn -0.8967 0.3130 0.3130
vn -0.9475 0.3128 0.0664
vn -0.9474 0.0664 0.3129
vn -0.7058 0.7057 0.0619
vn -0.0627 -0.9961 -0.0627
vn -0.3130 -0.8967 -0.3130
vn -0.0664 -0.9475 -0.3128
vn -0.3129 -0.9474 -0.0664
vn -0.6809 -0.6809 -0.2695
vn -0.2695 -0.6809 -0.6809
vn -0.0619 -0.7058 -0.7057
vn -0.5773 -0.5773 -0.5773
vn -0.8967 -0.3130 -0.3130
vn -0.9475 -0.3128 -0.0664
vn -0.9474 -0.0664 -0.3129
vn -0.6809 -0.2695 -0.6809
vn -0.7058 -0.7057 -0.0619
vn -0.3130 -0.3130 -0.8967
vn -0.3128 -0.0664 -0.9475
vn -0.0664 -0.3129 -0.9474
vn -0.7057 -0.0619 -0.7058
vn -0.0627 0.9961 -0.0627
vn -0.3130 0.8967 -0.3130
vn -0.3128 0.9475 -0.0664
vn -0.0664 0.9474 -0.3129
vn -0.2695 0.6809 -0.6809
vn -0.6809 0.6809 -0.2695
vn -0.7057 0.7058 -0.0619
vn -0.5773 0.5773 -0.5773
vn -0.0627 0.0627 -0.9961
vn -0.3130 0.3130 -0.8967
vn -0.0664 0.3128 -0.9475
vn -0.3129 0.0664 -0.9474
vn -0.6809 0.2695 -0.6809
vn -0.0619 0.7057 -0.7058
vn -0.8967 0.3130 -0.3130
vn -0.9475 0.0664 -0.3128
vn -0.9474 0.3129 -0.0664
vn -0.7058 0.0619 -0.7057
vn 0.0627 -0.9961 0.0627
vn 0.3130 -0.8967 0.3130
vn 0.0664 -0.9475 0.3128
vn 0.3129 -0.9474 0.0664
vn 0.6809 -0.6809 0.2695
vn 0.2695 -0.6809 0.6809
vn 0.0619 -0.7058 0.7057
vn 0.5773 -0.5773 0.5773
vn 0.8967 -0.3130 0.3130
vn 0.9475 -0.3128 0.0664
vn 0.9474 -0.0664 0.3129
vn 0.6809 -0.2695 0.6809
vn 0.7058 -0.7057 0.0619
vn 0.3130 -0.3130 0.8967
vn 0.3128 -0.0664 0.9475
vn 0.0664 -0.3129 0.9474
vn 0.7057 -0.0619 0.7058
vn 0.3130 0.8967 0.3130
vn 0.3128 0.9475 0.0664
vn 0.0664 0.9474 0.3129
vn 0.2695 0.6809 0.6809
vn 0.6809 0.6809 0.2695
vn 0.7057 0.7058 0.0619
vn 0.5773 0.5773 0.5773
vn 0.0627 0.0627 0.9961
vn 0.3130 0.3130 0.8967
vn 0.0664 0.3128 0.9475
vn 0.3129 0.0664 0.9474
vn 0.6809 0.2695 0.6809
vn 0.0619 0.7057 0.7058
vn 0.8967 0.3130 0.3130
vn 0.9475 0.0664 0.3128
vn 0.9474 0.3129 0.0664
vn 0.7058 0.0619 0.7057
vn 0.0627 -0.9961 -0.0627
vn 0.3130 -0.8967 -0.3130
vn 0.3128 -0.9475 -0.0664
vn 0.0664 -0.9474 -0.3129
vn 0.2695 -0.6809 -0.6809
vn 0.6809 -0.6809 -0.2695
vn 0.7057 -0.7058 -0.0619
vn 0.5773 -0.5773 -0.5773
vn 0.3130 -0.3130 -0.8967
vn 0.0664 -0.3128 -0.9475
vn 0.3129 -0.0664 -0.9474
vn 0.6809 -0.2695 -0.6809
vn 0.0619 -0.7057 -0.7058
vn 0.8967 -0.3130 -0.3130
vn 0.9475 -0.0664 -0.3128
vn 0.9474 -0.3129 -0.0664
vn 0.7058 -0.0619 -0.7057
vn 0.3130 0.8967 -0.3130
vn 0.0664 0.9475 -0.3128
vn 0.3129 0.9474 -0.0664
vn 0.6809 0.6809 -0.2695
vn 0.2695 0.6809 -0.6809
vn 0.0619 0.7058 -0.7057
vn 0.5773 0.5773 -0.5773
vn 0.9961 0.0627 -0.0627
vn 0.8967 0.3130 -0.3130
vn 0.9475 0.3128 -0.0664
vn 0.9474 0.0664 -0.3129
vn 0.6809 0.2695 -0.6809
vn 0.7058 0.7057 -0.0619
vn 0.3130 0.3130 -0.8967
vn 0.3128 0.0664 -0.9475
vn 0.0664 0.3129 -0.9474
vn 0.7057 0.0619 -0.7058
s 1
f 79//1 20//2 2//3
f 117//4 98//5 78//6
f 134//7 21//8 96//9
f 3//10 60//11 40//12
f 41//13 136//14 116//15
f 1//16 7//17 6//18
f 4//19 8//20 7//17
f 6//18 19//21 16//22
f 7//17 9//23 19//21
f 2//3 13//24 12//25
f 10//26 14//27 13//24
f 12//25 8//20 5//28
f 13//24 9//23 8//20
f 3//10 18//29 17//30
f 15//31 19//21 18//29
f 17//30 14//27 11//32
f 18//29 9//23 14//27
f 20//2 26//33 25//34
f 23//35 27//36 26//33
f 25//34 38//37 35//38
f 26//33 28//39 38//37
f 21//8 32//40 31//41
f 29//42 33//43 32//40
f 31//41 27//36 24//44
f 32//40 28//39 27//36
f 22//45 37//46 36//47
f 34//48 38//37 37//46
f 36//47 33//43 30//49
f 37//46 28//39 33//43
f 39//50 45//51 44//52
f 42//53 46//54 45//51
f 44//52 57//55 54//56
f 45//51 47//57 57//55
f 40//12 51//58 50//59
f 48//60 52//61 51//58
f 50//59 46//54 43//62
f 51//58 47//57 46//54
f 41//13 56//63 55//64
f 53//65 57//55 56//63
f 55//64 52//61 49//66
f 56//63 47//57 52//61
f 58//67 64//68 63//69
f 61//70 65//71 64//68
f 63//69 76//72 73//73
f 64//68 66//74 76//72
f 59//75 70//76 69//77
f 67//78 71//79 70//76
f 69//77 65//71 62//80
f 70//76 66//74 65//71
f 60//11 75//81 74//82
f 72//83 76//72 75//81
f 74//82 71//79 68//84
f 75//81 66//74 71//79
f 77//85 83//86 82//87
f 80//88 84//89 83//86
f 82//87 95//90 92//91
f 83//86 85//92 95//90
f 78//6 89//93 88//94
f 86//95 90//96 89//93
f 88//94 84//89 81//97
f 89//93 85//92 84//89
f 79//1 94//98 93//99
f 91//100 95//90 94//98
f 93//99 90//96 87//101
f 94//98 85//92 90//96
f 96//9 102//102 101//103
f 99//104 103//105 102//102
f 101//103 114//106 111//107
f 102//102 104//108 114//106
f 97//109 108//110 107//111
f 105//112 109//113 108//110
f 107//111 103//105 100//114
f 108//110 104//108 103//105
f 98//5 113//115 112//116
f 110//117 114//106 113//115
f 112//116 109//113 106//118
f 113//115 104//108 109//113
f 115//119 121//120 120//121
f 118//122 122//123 121//120
f 120//121 133//124 130//125
f 121//120 123//126 133//124
f 116//15 127//127 126//128
f 124//129 128//130 127//127
f 126//128 122//123 119//131
f 127//127 123//126 122//123
f 117//4 132//132 131//133
f 129//134 133//124 132//132
f 131//133 128//130 125//135
f 132//132 123//126 128//130
f 134//7 140//136 139//137
f 137//138 141//139 140//136
f 139//137 152//140 149//141
f 140//136 142//142 152//140
f 135//143 146//144 145//145
f 143//146 147//147 146//144
f 145//145 141//139 138//148
f 146//144 142//142 141//139
f 136//14 151//149 150//150
f 148//151 152//140 151//149
f 150//150 147//147 144//152
f 151//149 142//142 147//147
f 39//50 6//18 42//53
f 42//53 16//22 43//62
f 43//62 15//31 50//59
f 50//59 3//10 40//12
f 2//3 25//34 10//26
f 10//26 35//38 11//32
f 11//32 34//48 17//30
f 17//30 22//45 3//10
f 21//8 63//69 29//42
f 29//42 73//73 30//49
f 30//49 72//83 36//47
f 36//47 60//11 22//45
f 59//75 55//64 67//78
f 67//78 49//66 68//84
f 68//84 48//60 74//82
f 74//82 40//12 60//11
f 115//119 44//52 118//122
f 118//122 54//56 119//131
f 119//131 53//65 126//128
f 126//128 41//13 116//15
f 58//67 139//137 61//70
f 61//70 149//141 62//80
f 62//80 148//151 69//77
f 69//77 136//14 59//75
f 135//143 131//133 143//146
f 143//146 125//135 144//152
f 144//152 124//129 150//150
f 150//150 116//15 136//14
f 77//85 120//121 80//88
f 80//88 130//125 81//97
f 81//97 129//134 88//94
f 88//94 117//4 78//6
f 134//7 101//103 137//138
f 137//138 111//107 138//148
f 138//148 110//117 145//145
f 145//145 98//5 135//143
f 97//109 93//99 105//112
f 105//112 87//101 106//118
f 106//118 86//95 112//116
f 112//116 78//6 98//5
f 1//16 82//87 4//19
f 4//19 92//91 5//28
f 5//28 91//100 12//25
f 12//25 79//1 2//3
f 96//9 31//41 99//104
f 99//104 24//44 100//114
f 100//114 23//35 107//111
f 107//111 20//2 97//109
f 39//50 77//85 1//16
f 79//1 97//109 20//2
f 117//4 135//143 98//5
f 134//7 58//67 21//8
f 3//10 22//45 60//11
f 41//13 59//75 136//14
f 1//16 4//19 7//17
f 4//19 5//28 8//20
f 6//18 7//17 19//21
f 7//17 8//20 9//23
f 2//3 10//26 13//24
f 10//26 11//32 14//27
f 12//25 13//24 8//20
f 13//24 14//27 9//23
f 3//10 15//31 18//29
f 15//31 16//22 19//21
f 17//30 18//29 14//27
f 18//29 19//21 9//23
f 20//2 23//35 26//33
f 23//35 24//44 27//36
f 25//34 26//33 38//37
f 26//33 27//36 28//39
f 21//8 29//42 32//40
f 29//42 30//49 33//43
f 31//41 32//40 27//36
f 32//40 33//43 28//39
f 22//45 34//48 37//46
f 34//48 35//38 38//37
f 36//47 37//46 33//43
f 37//46 38//37 28//39
f 39//50 42//53 45//51
f 42//53 43//62 46//54
f 44//52 45//51 57//55
f 45//51 46//54 47//57
f 40//12 48//60 51//58
f 48//60 49//66 52//61
f 50//59 51//58 46//54
f 51//58 52//61 47//57
f 41//13 53//65 56//63
f 53//65 54//56 57//55
f 55//64 56//63 52//61
f 56//63 57//55 47//57
f 58//67 61//70 64//68
f 61//70 62//80 65//71
f 63//69 64//68 76//72
f 64//68 65//71 66//74
f 59//75 67//78 70//76
f 67//78 68//84 71//79
f 69//77 70//76 65//71
f 70//76 71//79 66//74
f 60//11 72//83 75//81
f 72//83 73//73 76//72
f 74//82 75//81 71//79
f 75//81 76//72 66//74
f 77//85 80//88 83//86
f 80//88 81//97 84//89
f 82//87 83//86 95//90
f 83//86 84//89 85//92
f 78//6 86//95 89//93
f 86//95 87//101 90//96
f 88//94 89//93 84//89
f 89//93 90//96 85//92
f 79//1 91//100 94//98
f 91//100 92//91 95//90
f 93//99 94//98 90//96
f 94//98 95//90 85//92
f 96//9 99//104 102//102
f 99//104 100//114 103//105
f 101//103 102//102 114//106
f 102//102 103//105 104//108
f 97//109 105//112 108//110
f 105//112 106//118 109//113
f 107//111 108//110 103//105
f 108//110 109//113 104//108
f 98//5 110//117 113//115
f 110//117 111//107 114//106
f 112//116 113//115 109//113
f 113//115 114//106 104//108
f 115//119 118//122 121//120
f 118//122 119//131 122//123
f 120//121 121//120 133//124
f 121//120 122//123 123//126
f 116//15 124//129 127//127
f 124//129 125//135 128//130
f 126//128 127//127 122//123
f 127//127 128//130 123//126
f 117//4 129//134 132//132
f 129//134 130//125 133//124
f 131//133 132//132 128//130
f 132//132 133//124 123//126
f 134//7 137//138 140//136
f 137//138 138//148 141//139
f 139//137 140//136 152//140
f 140//136 141//139 142//142
f 135//143 143//146 146//144
f 143//146 144//152 147//147
f 145//145 146//144 141//139
f 146//144 147//147 142//142
f 136//14 148//151 151//149
f 148//151 149//141 152//140
f 150//150 151//149 147//147
f 151//149 152//140 142//142
f 39//50 1//16 6//18
f 42//53 6//18 16//22
f 43//62 16//22 15//31
f 50//59 15//31 3//10
f 2//3 20//2 25//34
f 10//26 25//34 35//38
f 11//32 35//38 34//48
f 17//30 34//48 22//45
f 21//8 58//67 63//69
f 29//42 63//69 73//73
f 30//49 73//73 72//83
f 36//47 72//83 60//11
f 59//75 41//13 55//64
f 67//78 55//64 49//66
f 68//84 49//66 48//60
f 74//82 48//60 40//12
f 115//119 39//50 44//52
f 118//122 44//52 54//56
f 119//131 54//56 53//65
f 126//128 53//65 41//13
f 58//67 134//7 139//137
f 61//70 139//137 149//141
f 62//80 149//141 148//151
f 69//77 148//151 136//14
f 135//143 117//4 131//133
f 143//146 131//133 125//135
f 144//152 125//135 124//129
f 150//150 124//129 116//15
f 77//85 115//119 120//121
f 80//88 120//121 130//125
f 81//97 130//125 129//134
f 88//94 129//134 117//4
f 134//7 96//9 101//103
f 137//138 101//103 111//107
f 138//148 111//107 110//117
f 145//145 110//117 98//5
f 97//109 79//1 93//99
f 105//112 93//99 87//101
f 106//118 87//101 86//95
f 112//116 86//95 78//6
f 1//16 77//85 82//87
f 4//19 82//87 92//91
f 5//28 92//91 91//100
f 12//25 91//100 79//1
f 96//9 21//8 31//41
f 99//104 31//41 24//44
f 100//114 24//44 23//35
f 107//111 23//35 20//2
f 39//50 115//119 77//85
