# Blender v2.78 (sub 0) OBJ File: 'stick_insect.blend'
# www.blender.org
o visual_leg1_upper_upper_leg
v -0.153961 -0.030000 0.008787
v -0.153961 -0.008787 0.030000
v -0.175175 -0.008787 0.008787
v -0.153961 -0.028982 0.017285
v -0.153961 -0.024678 0.024679
v -0.162456 -0.028983 0.008787
v -0.162858 -0.027620 0.017683
v -0.162409 -0.023927 0.023928
v -0.167383 -0.022208 0.022208
v -0.162460 -0.008787 0.028982
v -0.169854 -0.008787 0.024678
v -0.153961 -0.017281 0.028983
v -0.162858 -0.017683 0.027620
v -0.169102 -0.017235 0.023927
v -0.174157 -0.017285 0.008787
v -0.169853 -0.024679 0.008787
v -0.174158 -0.008787 0.017281
v -0.172794 -0.017683 0.017683
v -0.169102 -0.023928 0.017235
v -0.153961 0.008787 0.030000
v -0.153961 0.030000 0.008787
v -0.175175 0.008787 0.008787
v -0.153961 0.017285 0.028982
v -0.153961 0.024679 0.024678
v -0.162456 0.008787 0.028983
v -0.162858 0.017683 0.027620
v -0.162409 0.023928 0.023927
v -0.167383 0.022208 0.022208
v -0.162460 0.028982 0.008787
v -0.169854 0.024678 0.008787
v -0.153961 0.028983 0.017281
v -0.162858 0.027620 0.017683
v -0.169102 0.023927 0.017235
v -0.174157 0.008787 0.017285
v -0.169853 0.008787 0.024679
v -0.174158 0.017281 0.008787
v -0.172794 0.017683 0.017683
v -0.169102 0.017235 0.023928
v -0.153961 -0.030000 -0.008787
v -0.175175 -0.008787 -0.008787
v -0.153961 -0.008787 -0.030000
v -0.162460 -0.028982 -0.008787
v -0.169854 -0.024678 -0.008787
v -0.153961 -0.028983 -0.017281
v -0.162858 -0.027620 -0.017683
v -0.169102 -0.023927 -0.017235
v -0.167383 -0.022208 -0.022208
v -0.174157 -0.008787 -0.017285
v -0.169853 -0.008787 -0.024679
v -0.174158 -0.017281 -0.008787
v -0.172794 -0.017683 -0.017683
v -0.169102 -0.017235 -0.023928
v -0.153961 -0.017285 -0.028982
v -0.153961 -0.024679 -0.024678
v -0.162456 -0.008787 -0.028983
v -0.162858 -0.017683 -0.027620
v -0.162409 -0.023928 -0.023927
v -0.153961 0.030000 -0.008787
v -0.153961 0.008787 -0.030000
v -0.175175 0.008787 -0.008787
v -0.153961 0.028982 -0.017285
v -0.153961 0.024678 -0.024679
v -0.162456 0.028983 -0.008787
v -0.162858 0.027620 -0.017683
v -0.162409 0.023927 -0.023928
v -0.167383 0.022208 -0.022208
v -0.162460 0.008787 -0.028982
v -0.169854 0.008787 -0.024678
v -0.153961 0.017281 -0.028983
v -0.162858 0.017683 -0.027620
v -0.169102 0.017235 -0.023927
v -0.174157 0.017285 -0.008787
v -0.169853 0.024679 -0.008787
v -0.174158 0.008787 -0.017281
v -0.172794 0.017683 -0.017683
v -0.169102 0.023928 -0.017235
v 0.128787 -0.030000 0.008787
v 0.150000 -0.008787 0.008787
v 0.128787 -0.008787 0.030000
v 0.137285 -0.028982 0.008787
v 0.144679 -0.024678 0.008787
v 0.128787 -0.028983 0.017281
v 0.137683 -0.027620 0.017683
v 0.143928 -0.023927 0.017235
v 0.142208 -0.022208 0.022208
v 0.148982 -0.008787 0.017285
v 0.144678 -0.008787 0.024679
v 0.148983 -0.017281 0.008787
v 0.147620 -0.017683 0.017683
v 0.143927 -0.017235 0.023928
v 0.128787 -0.017285 0.028982
v 0.128787 -0.024679 0.024678
v 0.137281 -0.008787 0.028983
v 0.137683 -0.017683 0.027620
v 0.137235 -0.023928 0.023927
v 0.128787 0.030000 0.008787
v 0.128787 0.008787 0.030000
v 0.150000 0.008787 0.008787
v 0.128787 0.028982 0.017285
v 0.128787 0.024678 0.024679
v 0.137281 0.028983 0.008787
v 0.137683 0.027620 0.017683
v 0.137235 0.023927 0.023928
v 0.142208 0.022208 0.022208
v 0.137285 0.008787 0.028982
v 0.144679 0.008787 0.024678
v 0.128787 0.017281 0.028983
v 0.137683 0.017683 0.027620
v 0.143928 0.017235 0.023927
v 0.148982 0.017285 0.008787
v 0.144678 0.024679 0.008787
v 0.148983 0.008787 0.017281
v 0.147620 0.017683 0.017683
v 0.143927 0.023928 0.017235
v 0.128787 -0.030000 -0.008787
v 0.128787 -0.008787 -0.030000
v 0.150000 -0.008787 -0.008787
v 0.128787 -0.028982 -0.017285
v 0.128787 -0.024678 -0.024679
v 0.137281 -0.028983 -0.008787
v 0.137683 -0.027620 -0.017683
v 0.137235 -0.023927 -0.023928
v 0.142208 -0.022208 -0.022208
v 0.137285 -0.008787 -0.028982
v 0.144679 -0.008787 -0.024678
v 0.128787 -0.017281 -0.028983
v 0.137683 -0.017683 -0.027620
v 0.143928 -0.017235 -0.023927
v 0.148982 -0.017285 -0.008787
v 0.144678 -0.024679 -0.008787
v 0.148983 -0.008787 -0.017281
v 0.147620 -0.017683 -0.017683
v 0.143927 -0.023928 -0.017235
v 0.128787 0.030000 -0.008787
v 0.150000 0.008787 -0.008787
v 0.128787 0.008787 -0.030000
v 0.137285 0.028982 -0.008787
v 0.144679 0.024678 -0.008787
v 0.128787 0.028983 -0.017281
v 0.137683 0.027620 -0.017683
v 0.143928 0.023927 -0.017235
v 0.142208 0.022208 -0.022208
v 0.148982 0.008787 -0.017285
v 0.144678 0.008787 -0.024679
v 0.148983 0.017281 -0.008787
v 0.147620 0.017683 -0.017683
v 0.143927 0.017235 -0.023928
v 0.128787 0.017285 -0.028982
v 0.128787 0.024679 -0.024678
v 0.137281 0.008787 -0.028983
v 0.137683 0.017683 -0.027620
v 0.137235 0.023928 -0.023927
vn 0.0627 -0.0627 0.9961
vn 0.0627 0.0627 0.9961
vn -0.0627 0.0627 0.9961
vn -0.0627 -0.0627 0.9961
vn 0.9961 -0.0627 -0.0627
vn 0.9961 0.0627 -0.0627
vn 0.9961 0.0627 0.0627
vn 0.9961 -0.0627 0.0627
vn 0.0627 0.9961 -0.0627
vn -0.0627 0.9961 -0.0627
vn -0.0627 0.9960 0.0627
vn 0.0627 0.9961 0.0627
vn -0.9961 -0.0627 0.0627
vn -0.9961 0.0627 -0.0627
vn -0.9961 -0.0627 -0.0627
vn -0.0627 -0.0627 -0.9961
vn -0.0627 0.0627 -0.9960
vn 0.0627 0.0627 -0.9961
vn 0.0627 -0.0627 -0.9961
vn -0.0627 -0.9961 0.0627
vn -0.3130 -0.8967 0.3130
vn -0.3128 -0.9475 0.0664
vn -0.0664 -0.9474 0.3128
vn -0.2695 -0.6809 0.6809
vn -0.6809 -0.6809 0.2695
vn -0.7057 -0.7058 0.0619
vn -0.5773 -0.5773 0.5773
vn -0.3130 -0.3130 0.8967
vn -0.0664 -0.3128 0.9475
vn -0.3129 -0.0664 0.9474
vn -0.6809 -0.2695 0.6809
vn -0.0619 -0.7057 0.7058
vn -0.8967 -0.3130 0.3130
vn -0.9475 -0.0664 0.3128
vn -0.9474 -0.3129 0.0664
vn -0.7058 -0.0619 0.7057
vn -0.3130 0.3130 0.8967
vn -0.3128 0.0664 0.9475
vn -0.0664 0.3128 0.9474
vn -0.2695 0.6809 0.6809
vn -0.6809 0.2695 0.6809
vn -0.7057 0.0619 0.7058
vn -0.5773 0.5773 0.5773
vn -0.3130 0.8967 0.3130
vn -0.0664 0.9475 0.3128
vn -0.3129 0.9474 0.0664
vn -0.6809 0.6809 0.2695
vn -0.0619 0.7058 0.7057
vn -0.9961 0.0627 0.0627
vn -0.8967 0.3130 0.3130
vn -0.9475 0.3128 0.0664
vn -0.9474 0.0664 0.3129
vn -0.7058 0.7057 0.0619
vn -0.0627 -0.9960 -0.0627
vn -0.3130 -0.8967 -0.3130
vn -0.0664 -0.9475 -0.3128
vn -0.3129 -0.9474 -0.0664
vn -0.6809 -0.6809 -0.2695
vn -0.2695 -0.6809 -0.6809
vn -0.0619 -0.7058 -0.7057
vn -0.5773 -0.5773 -0.5773
vn -0.8967 -0.3130 -0.3130
vn -0.9475 -0.3128 -0.0664
vn -0.9474 -0.0664 -0.3129
vn -0.6809 -0.2695 -0.6809
vn -0.7058 -0.7057 -0.0619
vn -0.3130 -0.3130 -0.8967
vn -0.3128 -0.0664 -0.9475
vn -0.0664 -0.3128 -0.9474
vn -0.7057 -0.0619 -0.7058
vn -0.3130 0.8967 -0.3130
vn -0.3128 0.9475 -0.0664
vn -0.0664 0.9474 -0.3128
vn -0.2695 0.6809 -0.6809
vn -0.6809 0.6809 -0.2695
vn -0.7057 0.7058 -0.0619
vn -0.5773 0.5773 -0.5773
vn -0.3130 0.3130 -0.8967
vn -0.0664 0.3128 -0.9475
vn -0.3129 0.0664 -0.9474
vn -0.6809 0.2695 -0.6809
vn -0.0619 0.7057 -0.7058
vn -0.8967 0.3130 -0.3130
vn -0.9475 0.0664 -0.3128
vn -0.9474 0.3129 -0.0664
vn -0.7058 0.0619 -0.7057
vn 0.0627 -0.9961 0.0627
vn 0.3163 -0.9466 0.0626
vn 0.3126 -0.8969 0.3126
vn 0.0626 -0.9466 0.3163
vn 0.7059 -0.7059 0.0586
vn 0.6781 -0.6780 0.2837
vn 0.2837 -0.6781 0.6780
vn 0.0586 -0.7059 0.7059
vn 0.5773 -0.5773 0.5773
vn 0.9466 -0.0626 0.3163
vn 0.8969 -0.3126 0.3126
vn 0.9466 -0.3162 0.0626
vn 0.7059 -0.0586 0.7059
vn 0.6780 -0.2837 0.6781
vn 0.0626 -0.3163 0.9466
vn 0.3126 -0.3126 0.8969
vn 0.3162 -0.0626 0.9466
vn 0.0626 0.9466 0.3163
vn 0.3126 0.8969 0.3126
vn 0.3162 0.9466 0.0626
vn 0.0586 0.7059 0.7059
vn 0.2837 0.6780 0.6781
vn 0.6780 0.6781 0.2837
vn 0.7059 0.7059 0.0586
vn 0.5773 0.5773 0.5773
vn 0.3163 0.0626 0.9466
vn 0.3126 0.3126 0.8969
vn 0.0626 0.3163 0.9466
vn 0.7059 0.0586 0.7059
vn 0.6781 0.2837 0.6780
vn 0.9466 0.3163 0.0626
vn 0.8969 0.3126 0.3126
vn 0.9466 0.0626 0.3162
vn 0.0627 -0.9961 -0.0627
vn 0.0626 -0.9466 -0.3163
vn 0.3126 -0.8969 -0.3126
vn 0.3162 -0.9466 -0.0626
vn 0.0586 -0.7059 -0.7059
vn 0.2837 -0.6780 -0.6781
vn 0.6780 -0.6781 -0.2837
vn 0.7059 -0.7059 -0.0586
vn 0.5773 -0.5773 -0.5773
vn 0.3163 -0.0626 -0.9466
vn 0.3126 -0.3126 -0.8969
vn 0.0626 -0.3163 -0.9466
vn 0.7059 -0.0586 -0.7059
vn 0.6781 -0.2837 -0.6780
vn 0.9466 -0.3163 -0.0626
vn 0.8969 -0.3126 -0.3126
vn 0.9466 -0.0626 -0.3162
vn 0.3163 0.9466 -0.0626
vn 0.3126 0.8969 -0.3126
vn 0.0626 0.9466 -0.3163
vn 0.7059 0.7059 -0.0586
vn 0.6781 0.6780 -0.2837
vn 0.2837 0.6781 -0.6780
vn 0.0586 0.7059 -0.7059
vn 0.5773 0.5773 -0.5773
vn 0.9466 0.0626 -0.3163
vn 0.8969 0.3126 -0.3126
vn 0.9466 0.3162 -0.0626
vn 0.7059 0.0586 -0.7059
vn 0.6780 0.2837 -0.6781
vn 0.0626 0.3163 -0.9466
vn 0.3126 0.3126 -0.8969
vn 0.3162 0.0626 -0.9466
s 1
f 79//1 97//2 20//3 2//4
f 117//5 135//6 98//7 78//8
f 134//9 58//10 21//11 96//12
f 3//13 60//14 40//15
f 41//16 59//17 136//18 116//19
f 1//20 7//21 6//22
f 4//23 8//24 7//21
f 6//22 19//25 16//26
f 7//21 9//27 19//25
f 2//4 13//28 12//29
f 10//30 14//31 13//28
f 12//29 8//24 5//32
f 13//28 9//27 8//24
f 3//13 18//33 17//34
f 15//35 19//25 18//33
f 17//34 14//31 11//36
f 18//33 9//27 14//31
f 20//3 26//37 25//38
f 23//39 27//40 26//37
f 25//38 38//41 35//42
f 26//37 28//43 38//41
f 21//11 32//44 31//45
f 29//46 33//47 32//44
f 31//45 27//40 24//48
f 32//44 28//43 27//40
f 22//49 37//50 36//51
f 34//52 38//41 37//50
f 36//51 33//47 30//53
f 37//50 28//43 33//47
f 39//54 45//55 44//56
f 42//57 46//58 45//55
f 44//56 57//59 54//60
f 45//55 47//61 57//59
f 40//15 51//62 50//63
f 48//64 52//65 51//62
f 50//63 46//58 43//66
f 51//62 47//61 46//58
f 41//16 56//67 55//68
f 53//69 57//59 56//67
f 55//68 52//65 49//70
f 56//67 47//61 52//65
f 58//10 64//71 63//72
f 61//73 65//74 64//71
f 63//72 76//75 73//76
f 64//71 66//77 76//75
f 59//17 70//78 69//79
f 67//80 71//81 70//78
f 69//79 65//74 62//82
f 70//78 66//77 65//74
f 60//14 75//83 74//84
f 72//85 76//75 75//83
f 74//84 71//81 68//86
f 75//83 66//77 71//81
f 77//87 80//88 83//89 82//90
f 80//88 81//91 84//92 83//89
f 82//90 83//89 95//93 92//94
f 83//89 84//92 85//95 95//93
f 78//8 86//96 89//97 88//98
f 86//96 87//99 90//100 89//97
f 88//98 89//97 84//92 81//91
f 89//97 90//100 85//95 84//92
f 79//1 91//101 94//102 93//103
f 91//101 92//94 95//93 94//102
f 93//103 94//102 90//100 87//99
f 94//102 95//93 85//95 90//100
f 96//12 99//104 102//105 101//106
f 99//104 100//107 103//108 102//105
f 101//106 102//105 114//109 111//110
f 102//105 103//108 104//111 114//109
f 97//2 105//112 108//113 107//114
f 105//112 106//115 109//116 108//113
f 107//114 108//113 103//108 100//107
f 108//113 109//116 104//111 103//108
f 98//7 110//117 113//118 112//119
f 110//117 111//110 114//109 113//118
f 112//119 113//118 109//116 106//115
f 113//118 114//109 104//111 109//116
f 115//120 118//121 121//122 120//123
f 118//121 119//124 122//125 121//122
f 120//123 121//122 133//126 130//127
f 121//122 122//125 123//128 133//126
f 116//19 124//129 127//130 126//131
f 124//129 125//132 128//133 127//130
f 126//131 127//130 122//125 119//124
f 127//130 128//133 123//128 122//125
f 117//5 129//134 132//135 131//136
f 129//134 130//127 133//126 132//135
f 131//136 132//135 128//133 125//132
f 132//135 133//126 123//128 128//133
f 134//9 137//137 140//138 139//139
f 137//137 138//140 141//141 140//138
f 139//139 140//138 152//142 149//143
f 140//138 141//141 142//144 152//142
f 135//6 143//145 146//146 145//147
f 143//145 144//148 147//149 146//146
f 145//147 146//146 141//141 138//140
f 146//146 147//149 142//144 141//141
f 136//18 148//150 151//151 150//152
f 148//150 149//143 152//142 151//151
f 150//152 151//151 147//149 144//148
f 151//151 152//142 142//144 147//149
f 39//54 6//22 42//57
f 42//57 16//26 43//66
f 43//66 15//35 50//63
f 50//63 3//13 40//15
f 2//4 25//38 10//30
f 10//30 35//42 11//36
f 11//36 34//52 17//34
f 17//34 22//49 3//13
f 21//11 63//72 29//46
f 29//46 73//76 30//53
f 30//53 72//85 36//51
f 36//51 60//14 22//49
f 59//17 55//68 67//80
f 67//80 49//70 68//86
f 68//86 48//64 74//84
f 74//84 40//15 60//14
f 115//120 39//54 44//56 118//121
f 118//121 44//56 54//60 119//124
f 119//124 54//60 53//69 126//131
f 126//131 53//69 41//16 116//19
f 58//10 134//9 139//139 61//73
f 61//73 139//139 149//143 62//82
f 62//82 149//143 148//150 69//79
f 69//79 148//150 136//18 59//17
f 135//6 117//5 131//136 143//145
f 143//145 131//136 125//132 144//148
f 144//148 125//132 124//129 150//152
f 150//152 124//129 116//19 136//18
f 77//87 115//120 120//123 80//88
f 80//88 120//123 130//127 81//91
f 81//91 130//127 129//134 88//98
f 88//98 129//134 117//5 78//8
f 134//9 96//12 101//106 137//137
f 137//137 101//106 111//110 138//140
f 138//140 111//110 110//117 145//147
f 145//147 110//117 98//7 135//6
f 97//2 79//1 93//103 105//112
f 105//112 93//103 87//99 106//115
f 106//115 87//99 86//96 112//119
f 112//119 86//96 78//8 98//7
f 1//20 77//87 82//90 4//23
f 4//23 82//90 92//94 5//32
f 5//32 92//94 91//101 12//29
f 12//29 91//101 79//1 2//4
f 96//12 21//11 31//45 99//104
f 99//104 31//45 24//48 100//107
f 100//107 24//48 23//39 107//114
f 107//114 23//39 20//3 97//2
f 39//54 115//120 77//87 1//20
f 3//13 22//49 60//14
f 1//20 4//23 7//21
f 4//23 5//32 8//24
f 6//22 7//21 19//25
f 7//21 8//24 9//27
f 2//4 10//30 13//28
f 10//30 11//36 14//31
f 12//29 13//28 8//24
f 13//28 14//31 9//27
f 3//13 15//35 18//33
f 15//35 16//26 19//25
f 17//34 18//33 14//31
f 18//33 19//25 9//27
f 20//3 23//39 26//37
f 23//39 24//48 27//40
f 25//38 26//37 38//41
f 26//37 27//40 28//43
f 21//11 29//46 32//44
f 29//46 30//53 33//47
f 31//45 32//44 27//40
f 32//44 33//47 28//43
f 22//49 34//52 37//50
f 34//52 35//42 38//41
f 36//51 37//50 33//47
f 37//50 38//41 28//43
f 39//54 42//57 45//55
f 42//57 43//66 46//58
f 44//56 45//55 57//59
f 45//55 46//58 47//61
f 40//15 48//64 51//62
f 48//64 49//70 52//65
f 50//63 51//62 46//58
f 51//62 52//65 47//61
f 41//16 53//69 56//67
f 53//69 54//60 57//59
f 55//68 56//67 52//65
f 56//67 57//59 47//61
f 58//10 61//73 64//71
f 61//73 62//82 65//74
f 63//72 64//71 76//75
f 64//71 65//74 66//77
f 59//17 67//80 70//78
f 67//80 68//86 71//81
f 69//79 70//78 65//74
f 70//78 71//81 66//77
f 60//14 72//85 75//83
f 72//85 73//76 76//75
f 74//84 75//83 71//81
f 75//83 76//75 66//77
f 39//54 1//20 6//22
f 42//57 6//22 16//26
f 43//66 16//26 15//35
f 50//63 15//35 3//13
f 2//4 20//3 25//38
f 10//30 25//38 35//42
f 11//36 35//42 34//52
f 17//34 34//52 22//49
f 21//11 58//10 63//72
f 29//46 63//72 73//76
f 30//53 73//76 72//85
f 36//51 72//85 60//14
f 59//17 41//16 55//68
f 67//80 55//68 49//70
f 68//86 49//70 48//64
f 74//84 48//64 40//15
