# Blender v2.78 (sub 0) OBJ File: 'stick_insect.blend'
# www.blender.org
o visual_velodyne_velodyne
v 0.000000 -0.072100 -0.042758
v 0.000000 0.069527 -0.042758
v 0.008342 -0.072100 -0.041937
v 0.008342 0.069527 -0.041937
v 0.016363 -0.072100 -0.039503
v 0.016363 0.069527 -0.039503
v 0.023755 -0.072100 -0.035552
v 0.023755 0.069527 -0.035552
v 0.030235 -0.072100 -0.030235
v 0.030235 0.069527 -0.030235
v 0.035552 -0.072100 -0.023755
v 0.035552 0.069527 -0.023755
v 0.039503 -0.072100 -0.016363
v 0.039503 0.069527 -0.016363
v 0.041937 -0.072100 -0.008342
v 0.041937 0.069527 -0.008342
v 0.042758 -0.072100 -0.000000
v 0.042758 0.069527 -0.000000
v 0.041937 -0.072100 0.008342
v 0.041937 0.069527 0.008342
v 0.039503 -0.072100 0.016363
v 0.039503 0.069527 0.016363
v 0.035552 -0.072100 0.023755
v 0.035552 0.069527 0.023755
v 0.030235 -0.072100 0.030235
v 0.030235 0.069527 0.030235
v 0.023755 -0.072100 0.035552
v 0.023755 0.069527 0.035552
v 0.016363 -0.072100 0.039503
v 0.016363 0.069527 0.039503
v 0.008342 -0.072100 0.041937
v 0.008342 0.069527 0.041937
v -0.000000 -0.072100 0.042758
v -0.000000 0.069527 0.042758
v -0.008342 -0.072100 0.041937
v -0.008342 0.069527 0.041937
v -0.016363 -0.072100 0.039503
v -0.016363 0.069527 0.039503
v -0.023755 -0.072100 0.035552
v -0.023755 0.069527 0.035552
v -0.030235 -0.072100 0.030235
v -0.030235 0.069527 0.030235
v -0.035552 -0.072100 0.023755
v -0.035552 0.069527 0.023755
v -0.039504 -0.072100 0.016363
v -0.039504 0.069527 0.016363
v -0.041937 -0.072100 0.008342
v -0.041937 0.069527 0.008342
v -0.042758 -0.072100 -0.000000
v -0.042758 0.069527 -0.000000
v -0.041937 -0.072100 -0.008342
v -0.041937 0.069527 -0.008342
v -0.039503 -0.072100 -0.016363
v -0.039503 0.069527 -0.016363
v -0.035552 -0.072100 -0.023755
v -0.035552 0.069527 -0.023755
v -0.030235 -0.072100 -0.030235
v -0.030235 0.069527 -0.030235
v -0.023755 -0.072100 -0.035552
v -0.023755 0.069527 -0.035552
v -0.016363 -0.072100 -0.039504
v -0.016363 0.069527 -0.039504
v -0.008342 -0.072100 -0.041937
v -0.008342 0.069527 -0.041937
v 0.000000 0.071011 -0.042036
v 0.008201 0.071011 -0.041229
v 0.016087 0.071011 -0.038837
v 0.023354 0.071011 -0.034952
v 0.029724 0.071011 -0.029724
v 0.034952 0.071011 -0.023354
v 0.038837 0.071011 -0.016087
v 0.041229 0.071011 -0.008201
v 0.042036 0.071011 -0.000000
v 0.041229 0.071011 0.008201
v 0.038837 0.071011 0.016087
v 0.034952 0.071011 0.023354
v 0.029724 0.071011 0.029724
v 0.023354 0.071011 0.034952
v 0.016087 0.071011 0.038837
v 0.008201 0.071011 0.041229
v -0.000000 0.071011 0.042036
v -0.008201 0.071011 0.041229
v -0.016087 0.071011 0.038837
v -0.023354 0.071011 0.034952
v -0.029724 0.071011 0.029724
v -0.034952 0.071011 0.023354
v -0.038837 0.071011 0.016087
v -0.041229 0.071011 0.008201
v -0.042036 0.071011 -0.000000
v -0.041229 0.071011 -0.008201
v -0.038837 0.071011 -0.016087
v -0.034952 0.071011 -0.023354
v -0.029724 0.071011 -0.029724
v -0.023354 0.071011 -0.034952
v -0.016087 0.071011 -0.038837
v -0.008201 0.071011 -0.041229
v 0.000000 0.072199 -0.040124
v 0.007828 0.072199 -0.039353
v 0.015355 0.072199 -0.037070
v 0.022292 0.072199 -0.033362
v 0.028372 0.072199 -0.028372
v 0.033362 0.072199 -0.022292
v 0.037070 0.072199 -0.015355
v 0.039353 0.072199 -0.007828
v 0.040124 0.072199 -0.000000
v 0.039353 0.072199 0.007828
v 0.037070 0.072199 0.015355
v 0.033362 0.072199 0.022292
v 0.028372 0.072199 0.028372
v 0.022292 0.072199 0.033362
v 0.015355 0.072199 0.037070
v 0.007828 0.072199 0.039353
v -0.000000 0.072199 0.040124
v -0.007828 0.072199 0.039353
v -0.015355 0.072199 0.037070
v -0.022292 0.072199 0.033362
v -0.028372 0.072199 0.028372
v -0.033362 0.072199 0.022292
v -0.037070 0.072199 0.015355
v -0.039353 0.072199 0.007828
v -0.040124 0.072199 -0.000000
v -0.039353 0.072199 -0.007828
v -0.037070 0.072199 -0.015355
v -0.033362 0.072199 -0.022292
v -0.028372 0.072199 -0.028372
v -0.022292 0.072199 -0.033362
v -0.015355 0.072199 -0.037070
v -0.007828 0.072199 -0.039353
v 0.000000 -0.072100 -0.042758
v 0.008342 -0.072100 -0.041937
v 0.008342 0.069527 -0.041937
v 0.000000 0.069527 -0.042758
v 0.016363 -0.072100 -0.039503
v 0.016363 0.069527 -0.039503
v 0.023755 -0.072100 -0.035552
v 0.023755 0.069527 -0.035552
v 0.030235 -0.072100 -0.030235
v 0.030235 0.069527 -0.030235
v 0.035552 -0.072100 -0.023755
v 0.035552 0.069527 -0.023755
v 0.039503 -0.072100 -0.016363
v 0.039503 0.069527 -0.016363
v 0.041937 -0.072100 -0.008342
v 0.041937 0.069527 -0.008342
v 0.042758 -0.072100 -0.000000
v 0.042758 0.069527 -0.000000
v 0.041937 -0.072100 0.008342
v 0.041937 0.069527 0.008342
v 0.039503 -0.072100 0.016363
v 0.039503 0.069527 0.016363
v 0.035552 -0.072100 0.023755
v 0.035552 0.069527 0.023755
v 0.030235 -0.072100 0.030235
v 0.030235 0.069527 0.030235
v 0.023755 -0.072100 0.035552
v 0.023755 0.069527 0.035552
v 0.016363 -0.072100 0.039503
v 0.016363 0.069527 0.039503
v 0.008342 -0.072100 0.041937
v 0.008342 0.069527 0.041937
v -0.000000 -0.072100 0.042758
v -0.000000 0.069527 0.042758
v -0.008342 -0.072100 0.041937
v -0.008342 0.069527 0.041937
v -0.016363 -0.072100 0.039503
v -0.016363 0.069527 0.039503
v -0.023755 -0.072100 0.035552
v -0.023755 0.069527 0.035552
v -0.030235 -0.072100 0.030235
v -0.030235 0.069527 0.030235
v -0.035552 -0.072100 0.023755
v -0.035552 0.069527 0.023755
v -0.039504 -0.072100 0.016363
v -0.039504 0.069527 0.016363
v -0.041937 -0.072100 0.008342
v -0.041937 0.069527 0.008342
v -0.042758 -0.072100 -0.000000
v -0.042758 0.069527 -0.000000
v -0.041937 -0.072100 -0.008342
v -0.041937 0.069527 -0.008342
v -0.039503 -0.072100 -0.016363
v -0.039503 0.069527 -0.016363
v -0.035552 -0.072100 -0.023755
v -0.035552 0.069527 -0.023755
v -0.030235 -0.072100 -0.030235
v -0.030235 0.069527 -0.030235
v -0.023755 -0.072100 -0.035552
v -0.023755 0.069527 -0.035552
v -0.016363 -0.072100 -0.039504
v -0.016363 0.069527 -0.039504
v -0.008342 -0.072100 -0.041937
v -0.008342 0.069527 -0.041937
v 0.008201 0.071011 -0.041229
v 0.000000 0.071011 -0.042036
v 0.016087 0.071011 -0.038837
v 0.023354 0.071011 -0.034952
v 0.029724 0.071011 -0.029724
v 0.034952 0.071011 -0.023354
v 0.038837 0.071011 -0.016087
v 0.041229 0.071011 -0.008201
v 0.042036 0.071011 -0.000000
v 0.041229 0.071011 0.008201
v 0.038837 0.071011 0.016087
v 0.034952 0.071011 0.023354
v 0.029724 0.071011 0.029724
v 0.023354 0.071011 0.034952
v 0.016087 0.071011 0.038837
v 0.008201 0.071011 0.041229
v -0.000000 0.071011 0.042036
v -0.008201 0.071011 0.041229
v -0.016087 0.071011 0.038837
v -0.023354 0.071011 0.034952
v -0.029724 0.071011 0.029724
v -0.034952 0.071011 0.023354
v -0.038837 0.071011 0.016087
v -0.041229 0.071011 0.008201
v -0.042036 0.071011 -0.000000
v -0.041229 0.071011 -0.008201
v -0.038837 0.071011 -0.016087
v -0.034952 0.071011 -0.023354
v -0.029724 0.071011 -0.029724
v -0.023354 0.071011 -0.034952
v -0.016087 0.071011 -0.038837
v -0.008201 0.071011 -0.041229
vn 0.0000 0.0000 -1.0000
vn 0.1951 0.0000 -0.9808
vn 0.3827 0.0000 -0.9239
vn 0.5556 0.0000 -0.8314
vn 0.7071 0.0000 -0.7071
vn 0.8314 0.0000 -0.5556
vn 0.9239 0.0000 -0.3827
vn 0.9808 0.0000 -0.1951
vn 1.0000 0.0000 0.0000
vn 0.9808 0.0000 0.1951
vn 0.9239 0.0000 0.3827
vn 0.8314 0.0000 0.5556
vn 0.7071 0.0000 0.7071
vn 0.5556 0.0000 0.8314
vn 0.3827 0.0000 0.9239
vn 0.1951 0.0000 0.9808
vn 0.0000 0.0000 1.0000
vn -0.1951 0.0000 0.9808
vn -0.3827 0.0000 0.9239
vn -0.5556 0.0000 0.8314
vn -0.7071 0.0000 0.7071
vn -0.8314 0.0000 0.5556
vn -0.9239 0.0000 0.3827
vn -0.9808 0.0000 0.1951
vn -1.0000 0.0000 0.0000
vn -0.9808 0.0000 -0.1951
vn -0.9239 0.0000 -0.3827
vn -0.8314 0.0000 -0.5556
vn -0.7071 0.0000 -0.7071
vn -0.5556 0.0000 -0.8314
vn -0.3827 0.0000 -0.9239
vn 0.7477 0.4373 -0.4996
vn 0.6359 0.4373 -0.6359
vn -0.1951 0.0000 -0.9808
vn 0.0000 -1.0000 0.0000
vn 0.3441 0.4373 0.8308
vn 0.4996 0.4373 0.7477
vn -0.8820 0.4373 0.1754
vn -0.8308 0.4373 0.3441
vn 0.1754 0.4373 -0.8820
vn 0.0000 0.4373 -0.8993
vn -0.1754 0.4373 -0.8820
vn 0.8308 0.4373 0.3441
vn 0.8820 0.4373 0.1754
vn -0.4996 0.4373 0.7477
vn -0.3441 0.4373 0.8308
vn -0.6359 0.4373 -0.6359
vn -0.7477 0.4373 -0.4996
vn 0.8308 0.4373 -0.3441
vn 0.1754 0.4373 0.8820
vn -0.8993 0.4373 0.0000
vn 0.3441 0.4373 -0.8308
vn 0.7477 0.4373 0.4996
vn -0.6359 0.4373 0.6359
vn -0.4996 0.4373 -0.7477
vn 0.8820 0.4373 -0.1754
vn 0.0000 0.4373 0.8993
vn -0.8820 0.4373 -0.1754
vn 0.4996 0.4373 -0.7477
vn 0.6359 0.4373 0.6359
vn -0.7477 0.4373 0.4996
vn -0.3441 0.4373 -0.8308
vn 0.8993 0.4373 0.0000
vn -0.1754 0.4373 0.8820
vn -0.8308 0.4373 -0.3441
vn 0.3730 0.8495 0.3730
vn 0.2411 0.9570 0.1611
vn 0.2051 0.9570 0.2051
vn -0.4874 0.8495 -0.2019
vn -0.2844 0.9570 -0.0566
vn -0.2679 0.9570 -0.1110
vn 0.2931 0.8495 0.4386
vn 0.1611 0.9570 0.2411
vn -0.4386 0.8495 -0.2931
vn -0.2411 0.9570 -0.1611
vn 0.2019 0.8495 0.4874
vn 0.1110 0.9570 0.2679
vn 0.1029 0.8495 -0.5174
vn 0.0000 0.9570 -0.2900
vn 0.0566 0.9570 -0.2844
vn -0.3730 0.8495 -0.3730
vn -0.2051 0.9570 -0.2051
vn 0.1029 0.8495 0.5174
vn 0.0566 0.9570 0.2844
vn 0.2019 0.8495 -0.4874
vn 0.1110 0.9570 -0.2679
vn -0.2931 0.8495 -0.4386
vn -0.1611 0.9570 -0.2411
vn 0.0000 0.8495 0.5275
vn 0.0000 0.9570 0.2900
vn 0.2931 0.8495 -0.4386
vn 0.1611 0.9570 -0.2411
vn -0.2019 0.8495 -0.4874
vn -0.1110 0.9570 -0.2679
vn -0.1029 0.8495 0.5174
vn -0.0566 0.9570 0.2844
vn 0.3730 0.8495 -0.3730
vn 0.2051 0.9570 -0.2051
vn -0.1029 0.8495 -0.5174
vn -0.0566 0.9570 -0.2844
vn -0.2019 0.8495 0.4874
vn -0.1110 0.9570 0.2679
vn 0.4386 0.8495 -0.2931
vn 0.2411 0.9570 -0.1611
vn 0.0000 0.8495 -0.5275
vn -0.2931 0.8495 0.4386
vn -0.1611 0.9570 0.2411
vn 0.4874 0.8495 -0.2019
vn 0.2679 0.9570 -0.1110
vn -0.3730 0.8495 0.3730
vn -0.2051 0.9570 0.2051
vn 0.5174 0.8495 -0.1029
vn 0.2844 0.9570 -0.0566
vn -0.4386 0.8495 0.2931
vn -0.2411 0.9570 0.1611
vn 0.5275 0.8495 0.0000
vn 0.2900 0.9570 0.0000
vn -0.4874 0.8495 0.2019
vn -0.2679 0.9570 0.1110
vn 0.5174 0.8495 0.1029
vn 0.2844 0.9570 0.0566
vn -0.5174 0.8495 0.1029
vn -0.2844 0.9570 0.0566
vn 0.4874 0.8495 0.2019
vn 0.2679 0.9570 0.1110
vn -0.5275 0.8495 0.0000
vn -0.2900 0.9570 0.0000
vn 0.4386 0.8495 0.2931
vn -0.5174 0.8495 -0.1029
s 1
f 129//1 131//2 130//2
f 130//2 134//3 133//3
f 133//3 136//4 135//4
f 135//4 138//5 137//5
f 137//5 140//6 139//6
f 139//6 142//7 141//7
f 141//7 144//8 143//8
f 143//8 146//9 145//9
f 145//9 148//10 147//10
f 147//10 150//11 149//11
f 149//11 152//12 151//12
f 151//12 154//13 153//13
f 153//13 156//14 155//14
f 155//14 158//15 157//15
f 157//15 160//16 159//16
f 159//16 162//17 161//17
f 161//17 164//18 163//18
f 163//18 166//19 165//19
f 165//19 168//20 167//20
f 167//20 170//21 169//21
f 169//21 172//22 171//22
f 171//22 174//23 173//23
f 173//23 176//24 175//24
f 175//24 178//25 177//25
f 177//25 180//26 179//26
f 179//26 182//27 181//27
f 181//27 184//28 183//28
f 183//28 186//29 185//29
f 185//29 188//30 187//30
f 187//30 190//31 189//31
f 12//32 197//33 198//32
f 191//34 132//1 129//1
f 189//31 192//34 191//34
f 31//35 47//35 63//35
f 30//36 206//37 207//36
f 48//38 215//39 216//38
f 4//40 194//41 193//40
f 2//41 224//42 194//41
f 22//43 202//44 203//43
f 40//45 211//46 212//45
f 58//47 220//48 221//47
f 14//49 198//32 199//49
f 32//50 207//36 208//50
f 50//51 216//38 217//51
f 6//52 193//40 195//52
f 24//53 203//43 204//53
f 42//54 212//45 213//54
f 60//55 221//47 222//55
f 16//56 199//49 200//56
f 34//57 208//50 209//57
f 52//58 217//51 218//58
f 8//59 195//52 196//59
f 26//60 204//53 205//60
f 44//61 213//54 214//61
f 62//62 222//55 223//62
f 18//63 200//56 201//63
f 36//64 209//57 210//64
f 54//65 218//58 219//65
f 10//33 196//59 197//33
f 28//37 205//60 206//37
f 46//39 214//61 215//39
f 64//42 223//62 224//42
f 20//44 201//63 202//44
f 38//46 210//64 211//46
f 56//48 219//65 220//48
f 77//66 108//67 109//68
f 91//69 122//70 123//71
f 78//72 109//68 110//73
f 92//74 123//71 124//75
f 79//76 110//73 111//77
f 66//78 97//79 98//80
f 93//81 124//75 125//82
f 80//83 111//77 112//84
f 67//85 98//80 99//86
f 94//87 125//82 126//88
f 81//89 112//84 113//90
f 68//91 99//86 100//92
f 95//93 126//88 127//94
f 82//95 113//90 114//96
f 69//97 100//92 101//98
f 96//99 127//94 128//100
f 83//101 114//96 115//102
f 70//103 101//98 102//104
f 65//105 128//100 97//79
f 84//106 115//102 116//107
f 71//108 102//104 103//109
f 85//110 116//107 117//111
f 72//112 103//109 104//113
f 86//114 117//111 118//115
f 73//116 104//113 105//117
f 87//118 118//115 119//119
f 74//120 105//117 106//121
f 88//122 119//119 120//123
f 75//124 106//121 107//125
f 89//126 120//123 121//127
f 76//128 107//125 108//67
f 90//129 121//127 122//70
f 115//102 107//125 99//86
f 129//1 132//1 131//2
f 130//2 131//2 134//3
f 133//3 134//3 136//4
f 135//4 136//4 138//5
f 137//5 138//5 140//6
f 139//6 140//6 142//7
f 141//7 142//7 144//8
f 143//8 144//8 146//9
f 145//9 146//9 148//10
f 147//10 148//10 150//11
f 149//11 150//11 152//12
f 151//12 152//12 154//13
f 153//13 154//13 156//14
f 155//14 156//14 158//15
f 157//15 158//15 160//16
f 159//16 160//16 162//17
f 161//17 162//17 164//18
f 163//18 164//18 166//19
f 165//19 166//19 168//20
f 167//20 168//20 170//21
f 169//21 170//21 172//22
f 171//22 172//22 174//23
f 173//23 174//23 176//24
f 175//24 176//24 178//25
f 177//25 178//25 180//26
f 179//26 180//26 182//27
f 181//27 182//27 184//28
f 183//28 184//28 186//29
f 185//29 186//29 188//30
f 187//30 188//30 190//31
f 12//32 10//33 197//33
f 191//34 192//34 132//1
f 189//31 190//31 192//34
f 63//35 1//35 3//35
f 3//35 5//35 7//35
f 7//35 9//35 15//35
f 11//35 13//35 15//35
f 15//35 17//35 19//35
f 19//35 21//35 15//35
f 23//35 25//35 31//35
f 27//35 29//35 31//35
f 31//35 33//35 35//35
f 35//35 37//35 31//35
f 39//35 41//35 43//35
f 43//35 45//35 47//35
f 47//35 49//35 51//35
f 51//35 53//35 55//35
f 55//35 57//35 63//35
f 59//35 61//35 63//35
f 63//35 3//35 15//35
f 9//35 11//35 15//35
f 15//35 21//35 23//35
f 25//35 27//35 31//35
f 31//35 37//35 39//35
f 39//35 43//35 47//35
f 47//35 51//35 55//35
f 57//35 59//35 63//35
f 3//35 7//35 15//35
f 15//35 23//35 31//35
f 31//35 39//35 47//35
f 47//35 55//35 63//35
f 63//35 15//35 31//35
f 30//36 28//37 206//37
f 48//38 46//39 215//39
f 4//40 2//41 194//41
f 2//41 64//42 224//42
f 22//43 20//44 202//44
f 40//45 38//46 211//46
f 58//47 56//48 220//48
f 14//49 12//32 198//32
f 32//50 30//36 207//36
f 50//51 48//38 216//38
f 6//52 4//40 193//40
f 24//53 22//43 203//43
f 42//54 40//45 212//45
f 60//55 58//47 221//47
f 16//56 14//49 199//49
f 34//57 32//50 208//50
f 52//58 50//51 217//51
f 8//59 6//52 195//52
f 26//60 24//53 204//53
f 44//61 42//54 213//54
f 62//62 60//55 222//55
f 18//63 16//56 200//56
f 36//64 34//57 209//57
f 54//65 52//58 218//58
f 10//33 8//59 196//59
f 28//37 26//60 205//60
f 46//39 44//61 214//61
f 64//42 62//62 223//62
f 20//44 18//63 201//63
f 38//46 36//64 210//64
f 56//48 54//65 219//65
f 77//66 76//128 108//67
f 91//69 90//129 122//70
f 78//72 77//66 109//68
f 92//74 91//69 123//71
f 79//76 78//72 110//73
f 66//78 65//105 97//79
f 93//81 92//74 124//75
f 80//83 79//76 111//77
f 67//85 66//78 98//80
f 94//87 93//81 125//82
f 81//89 80//83 112//84
f 68//91 67//85 99//86
f 95//93 94//87 126//88
f 82//95 81//89 113//90
f 69//97 68//91 100//92
f 96//99 95//93 127//94
f 83//101 82//95 114//96
f 70//103 69//97 101//98
f 65//105 96//99 128//100
f 84//106 83//101 115//102
f 71//108 70//103 102//104
f 85//110 84//106 116//107
f 72//112 71//108 103//109
f 86//114 85//110 117//111
f 73//116 72//112 104//113
f 87//118 86//114 118//115
f 74//120 73//116 105//117
f 88//122 87//118 119//119
f 75//124 74//120 106//121
f 89//126 88//122 120//123
f 76//128 75//124 107//125
f 90//129 89//126 121//127
f 99//86 98//80 127//94
f 97//79 128//100 127//94
f 127//94 126//88 125//82
f 125//82 124//75 123//71
f 123//71 122//70 121//127
f 121//127 120//123 123//71
f 119//119 118//115 117//111
f 117//111 116//107 119//119
f 115//102 114//96 113//90
f 113//90 112//84 111//77
f 111//77 110//73 109//68
f 109//68 108//67 107//125
f 107//125 106//121 105//117
f 105//117 104//113 107//125
f 103//109 102//104 101//98
f 101//98 100//92 99//86
f 98//80 97//79 127//94
f 127//94 125//82 99//86
f 123//71 120//123 119//119
f 119//119 116//107 115//102
f 115//102 113//90 107//125
f 111//77 109//68 107//125
f 107//125 104//113 103//109
f 103//109 101//98 99//86
f 99//86 125//82 123//71
f 123//71 119//119 115//102
f 113//90 111//77 107//125
f 107//125 103//109 99//86
f 99//86 123//71 115//102
